<?xml version="1.0" encoding="utf-8"?>
<!-- Generator: Adobe Illustrator 25.1.0, SVG Export Plug-In . SVG Version: 6.00 Build 0)  -->
<svg version="1.1" id="Layer_1" xmlns="http://www.w3.org/2000/svg" xmlns:xlink="http://www.w3.org/1999/xlink" x="0px" y="0px"
	 viewBox="0 0 86.4 90.2" style="enable-background:new 0 0 86.4 90.2;" xml:space="preserve">
<style type="text/css">
	.st0{fill:#FFFFFF;}
	.st1{fill:#1C1C1C;}
</style>
<g>
	<path class="st0" d="M41.9,88.5c-1,0-1.7-0.8-1.7-1.8l0.1-46.5L3.6,22.1c-0.5-0.2-0.8-0.6-0.9-1.1s0-1,0.3-1.4
		c0.7-1,1.7-1.7,2.8-2.2L38.9,2.8c1.7-0.7,3.4-1.1,5.2-1.1c2,0,3.9,0.4,5.7,1.3c0.1,0,0.1,0.1,0.2,0.1L81,18.5c0,0,0.1,0,0.1,0.1
		c1,0.5,1.9,1.3,2.5,2.2c0.7,1,1,2.2,1,3.4l-0.1,37.4c0,5.9-3.7,11.2-9.2,13.6L46.9,87.5c-1.5,0.6-3.1,1-4.7,1L41.9,88.5z"/>
	<path class="st1" d="M44.1,3.5c1.7,0,3.4,0.4,5,1.1c0,0,0,0,0,0l31.1,15.4c0,0,0,0,0,0c0.8,0.4,1.4,1,1.9,1.6
		c0.5,0.7,0.8,1.6,0.8,2.4v0l-0.1,37.4v0.1c0,5.1-3.2,9.8-8.2,11.9L46.2,85.9c-1.3,0.6-2.6,0.8-4,0.8c-0.1,0-0.2,0-0.3,0l0.1-47.5
		L4.4,20.5c0.5-0.7,1.2-1.3,2-1.6L39.6,4.4C41,3.8,42.6,3.5,44.1,3.5 M44.1,0c-2.1,0-4.1,0.4-5.9,1.2L5.1,15.7
		c-1.4,0.6-2.6,1.6-3.5,2.8C1,19.3,0.8,20.4,1,21.4c0.2,1,0.9,1.8,1.8,2.3l35.7,17.7l-0.1,45.4c0,1.9,1.5,3.5,3.4,3.5
		c0.1,0,0.2,0,0.4,0c1.9,0,3.7-0.4,5.4-1.1L76,76.7c6.2-2.7,10.2-8.6,10.3-15.1l0-0.1l0.1-37.4c0-1.6-0.5-3.1-1.3-4.4
		c-0.8-1.1-1.8-2.1-3.1-2.7c-0.1,0-0.1-0.1-0.2-0.1v0L50.8,1.5c-0.1,0-0.2-0.1-0.3-0.1C48.5,0.5,46.3,0,44.1,0L44.1,0z"/>
</g>
<g>
	<path class="st1" d="M41.9,88.5c-1.7,0-3.4-0.5-4.9-1.2L11.6,74.7l-1.3-0.7c0,0-0.1,0-0.1-0.1C5,71.4,1.7,66.3,1.7,60.7l0.1-37.7
		c0-1.3,0.4-2.5,1.1-3.5c0.3-0.5,0.9-0.7,1.4-0.7c0.3,0,0.5,0.1,0.8,0.2l37.7,18.6c0.6,0.3,1,0.9,1,1.6l-0.1,47.5
		c0,0.5-0.2,0.9-0.5,1.2C42.9,88.3,42.4,88.5,41.9,88.5C41.9,88.5,41.9,88.5,41.9,88.5z"/>
	<path class="st1" d="M4.4,20.5l37.7,18.6L42,86.7c-1.4,0-2.9-0.4-4.2-1L12.4,73.1l-1.4-0.7c0,0,0,0,0,0c-4.6-2.3-7.5-6.8-7.5-11.7
		v0l0.1-37.6v0C3.6,22.1,3.9,21.3,4.4,20.5 M4.4,17c-1.1,0-2.2,0.5-2.9,1.5c-0.9,1.3-1.4,2.8-1.5,4.4c0,0,0,0.1,0,0.1L0,60.7
		C0,67,3.6,72.6,9.3,75.5c0.1,0,0.1,0.1,0.2,0.1h0l1.4,0.7l25.4,12.6c1.7,0.9,3.7,1.4,5.7,1.4c0,0,0,0,0.1,0c0.9,0,1.8-0.4,2.4-1
		c0.7-0.7,1.1-1.6,1.1-2.5l0.1-47.5c0-1.3-0.8-2.6-1.9-3.1L6,17.4C5.5,17.2,4.9,17,4.4,17L4.4,17z"/>
</g>
<g>
	<g>
		<path class="st1" d="M70.8,41c1.4-0.8,2.5,0.9,2.5,3.8c0,2.9-1.1,5.9-2.5,6.7c-1.4,0.8-2.5-0.9-2.5-3.8
			C68.4,44.8,69.5,41.7,70.8,41z"/>
	</g>
	<g>
		<path class="st1" d="M70.6,54.7c0,0.3,0.5,5.1-5.1,8.4c-5.6,3.2-5.2-2.1-5.2-2.4L70.6,54.7z"/>
	</g>
	<g>
		<path class="st1" d="M57.5,48.7c1.4-0.8,2.5,0.9,2.5,3.8c0,2.9-1.1,5.9-2.5,6.7C56.1,60,55,58.3,55,55.4
			C55,52.5,56.1,49.5,57.5,48.7z"/>
	</g>
</g>
</svg>
